<mxfile host="app.diagrams.net" modified="2024-02-07T16:37:35.740Z" agent="Mozilla/5.0 (Windows NT 10.0; Win64; x64) AppleWebKit/537.36 (KHTML, like Gecko) Chrome/120.0.0.0 Safari/537.36" etag="uKkGgJV6dKHHOwn1-JmC" version="23.1.0" type="device">
  <diagram id="C5RBs43oDa-KdzZeNtuy" name="Page-1">
    <mxGraphModel dx="794" dy="412" grid="1" gridSize="10" guides="1" tooltips="1" connect="1" arrows="1" fold="1" page="1" pageScale="1" pageWidth="827" pageHeight="1169" math="0" shadow="0">
      <root>
        <mxCell id="WIyWlLk6GJQsqaUBKTNV-0" />
        <mxCell id="WIyWlLk6GJQsqaUBKTNV-1" parent="WIyWlLk6GJQsqaUBKTNV-0" />
        <mxCell id="sbnkvN23qmMUM0dp6lNf-9" style="edgeStyle=none;rounded=0;orthogonalLoop=1;jettySize=auto;html=1;exitX=1;exitY=1;exitDx=0;exitDy=0;exitPerimeter=0;entryX=0;entryY=0;entryDx=0;entryDy=0;" edge="1" parent="WIyWlLk6GJQsqaUBKTNV-1" source="sbnkvN23qmMUM0dp6lNf-0" target="sbnkvN23qmMUM0dp6lNf-4">
          <mxGeometry relative="1" as="geometry" />
        </mxCell>
        <mxCell id="sbnkvN23qmMUM0dp6lNf-0" value="User" style="ellipse;whiteSpace=wrap;html=1;aspect=fixed;fillColor=#42D9FF;points=[[0,0,0,0,0],[0,0.5,0,0,0],[0,1,0,0,0],[0.5,0,0,0,0],[0.5,1,0,0,0],[1,0,0,0,0],[1,0.5,0,0,0],[1,1,0,0,0]];" vertex="1" parent="WIyWlLk6GJQsqaUBKTNV-1">
          <mxGeometry x="80" y="160" width="50" height="50" as="geometry" />
        </mxCell>
        <mxCell id="sbnkvN23qmMUM0dp6lNf-11" style="edgeStyle=none;rounded=0;orthogonalLoop=1;jettySize=auto;html=1;exitX=1;exitY=0;exitDx=0;exitDy=0;entryX=0;entryY=1;entryDx=0;entryDy=0;" edge="1" parent="WIyWlLk6GJQsqaUBKTNV-1" source="sbnkvN23qmMUM0dp6lNf-1" target="sbnkvN23qmMUM0dp6lNf-4">
          <mxGeometry relative="1" as="geometry" />
        </mxCell>
        <mxCell id="sbnkvN23qmMUM0dp6lNf-1" value="User" style="ellipse;whiteSpace=wrap;html=1;aspect=fixed;fillColor=#42D9FF;" vertex="1" parent="WIyWlLk6GJQsqaUBKTNV-1">
          <mxGeometry x="80" y="330" width="50" height="50" as="geometry" />
        </mxCell>
        <mxCell id="sbnkvN23qmMUM0dp6lNf-10" style="edgeStyle=none;rounded=0;orthogonalLoop=1;jettySize=auto;html=1;exitX=1;exitY=0.5;exitDx=0;exitDy=0;" edge="1" parent="WIyWlLk6GJQsqaUBKTNV-1" source="sbnkvN23qmMUM0dp6lNf-2" target="sbnkvN23qmMUM0dp6lNf-4">
          <mxGeometry relative="1" as="geometry" />
        </mxCell>
        <mxCell id="sbnkvN23qmMUM0dp6lNf-2" value="User" style="ellipse;whiteSpace=wrap;html=1;aspect=fixed;fillColor=#42D9FF;" vertex="1" parent="WIyWlLk6GJQsqaUBKTNV-1">
          <mxGeometry x="80" y="250" width="50" height="50" as="geometry" />
        </mxCell>
        <mxCell id="sbnkvN23qmMUM0dp6lNf-12" style="edgeStyle=none;rounded=0;orthogonalLoop=1;jettySize=auto;html=1;exitX=1;exitY=0.5;exitDx=0;exitDy=0;" edge="1" parent="WIyWlLk6GJQsqaUBKTNV-1" source="sbnkvN23qmMUM0dp6lNf-4" target="sbnkvN23qmMUM0dp6lNf-5">
          <mxGeometry relative="1" as="geometry" />
        </mxCell>
        <mxCell id="sbnkvN23qmMUM0dp6lNf-4" value="Web App" style="whiteSpace=wrap;html=1;aspect=fixed;fillColor=#8AFFB5;" vertex="1" parent="WIyWlLk6GJQsqaUBKTNV-1">
          <mxGeometry x="200" y="235" width="80" height="80" as="geometry" />
        </mxCell>
        <mxCell id="sbnkvN23qmMUM0dp6lNf-13" style="edgeStyle=none;rounded=0;orthogonalLoop=1;jettySize=auto;html=1;exitX=1;exitY=0.5;exitDx=0;exitDy=0;" edge="1" parent="WIyWlLk6GJQsqaUBKTNV-1" source="sbnkvN23qmMUM0dp6lNf-5" target="sbnkvN23qmMUM0dp6lNf-6">
          <mxGeometry relative="1" as="geometry" />
        </mxCell>
        <mxCell id="sbnkvN23qmMUM0dp6lNf-5" value="API Gateway" style="rounded=1;whiteSpace=wrap;html=1;" vertex="1" parent="WIyWlLk6GJQsqaUBKTNV-1">
          <mxGeometry x="354" y="245" width="120" height="60" as="geometry" />
        </mxCell>
        <mxCell id="sbnkvN23qmMUM0dp6lNf-18" style="edgeStyle=none;rounded=0;orthogonalLoop=1;jettySize=auto;html=1;exitX=1;exitY=0.5;exitDx=0;exitDy=0;exitPerimeter=0;entryX=0;entryY=0.5;entryDx=0;entryDy=0;" edge="1" parent="WIyWlLk6GJQsqaUBKTNV-1" source="sbnkvN23qmMUM0dp6lNf-6" target="sbnkvN23qmMUM0dp6lNf-7">
          <mxGeometry relative="1" as="geometry" />
        </mxCell>
        <mxCell id="sbnkvN23qmMUM0dp6lNf-6" value="Database" style="shape=cylinder3;whiteSpace=wrap;html=1;boundedLbl=1;backgroundOutline=1;size=15;" vertex="1" parent="WIyWlLk6GJQsqaUBKTNV-1">
          <mxGeometry x="530" y="240" width="150" height="70" as="geometry" />
        </mxCell>
        <mxCell id="sbnkvN23qmMUM0dp6lNf-19" style="edgeStyle=orthogonalEdgeStyle;rounded=0;orthogonalLoop=1;jettySize=auto;html=1;exitX=0.5;exitY=1;exitDx=0;exitDy=0;entryX=0.5;entryY=0;entryDx=0;entryDy=0;" edge="1" parent="WIyWlLk6GJQsqaUBKTNV-1" source="sbnkvN23qmMUM0dp6lNf-7" target="sbnkvN23qmMUM0dp6lNf-8">
          <mxGeometry relative="1" as="geometry" />
        </mxCell>
        <mxCell id="sbnkvN23qmMUM0dp6lNf-20" style="edgeStyle=orthogonalEdgeStyle;rounded=0;orthogonalLoop=1;jettySize=auto;html=1;exitX=0.5;exitY=0;exitDx=0;exitDy=0;entryX=0.5;entryY=0;entryDx=0;entryDy=0;" edge="1" parent="WIyWlLk6GJQsqaUBKTNV-1" source="sbnkvN23qmMUM0dp6lNf-7" target="sbnkvN23qmMUM0dp6lNf-4">
          <mxGeometry relative="1" as="geometry" />
        </mxCell>
        <mxCell id="sbnkvN23qmMUM0dp6lNf-7" value="Raw Data&amp;nbsp;" style="rounded=0;whiteSpace=wrap;html=1;" vertex="1" parent="WIyWlLk6GJQsqaUBKTNV-1">
          <mxGeometry x="710" y="245" width="120" height="60" as="geometry" />
        </mxCell>
        <mxCell id="sbnkvN23qmMUM0dp6lNf-16" style="edgeStyle=none;rounded=0;orthogonalLoop=1;jettySize=auto;html=1;exitX=0;exitY=0.5;exitDx=0;exitDy=0;entryX=1;entryY=1;entryDx=0;entryDy=0;" edge="1" parent="WIyWlLk6GJQsqaUBKTNV-1" source="sbnkvN23qmMUM0dp6lNf-8" target="sbnkvN23qmMUM0dp6lNf-4">
          <mxGeometry relative="1" as="geometry" />
        </mxCell>
        <mxCell id="sbnkvN23qmMUM0dp6lNf-8" value="User Data Interface" style="rounded=0;whiteSpace=wrap;html=1;" vertex="1" parent="WIyWlLk6GJQsqaUBKTNV-1">
          <mxGeometry x="710" y="350" width="120" height="60" as="geometry" />
        </mxCell>
      </root>
    </mxGraphModel>
  </diagram>
</mxfile>
